<?xml version="1.0" encoding="UTF-8"?>
<!DOCTYPE svg PUBLIC "-//W3C//DTD SVG 1.1//EN" "http://www.w3.org/Graphics/SVG/1.1/DTD/svg11.dtd">
<!-- Creator: CorelDRAW (Not for commercial use) -->
<svg xmlns="http://www.w3.org/2000/svg" xml:space="preserve" width="3.94283in" height="4.55713in" version="1.1" style="shape-rendering:geometricPrecision; text-rendering:geometricPrecision; image-rendering:optimizeQuality; fill-rule:evenodd; clip-rule:evenodd"
viewBox="0 0 532.19 615.11"
 xmlns:xlink="http://www.w3.org/1999/xlink"
 xmlns:xodm="http://www.corel.com/coreldraw/odm/2003">
 <defs>
  <style type="text/css">
   <![CDATA[
    .str2 {stroke:black;stroke-width:4.22;stroke-miterlimit:2.61313}
    .str0 {stroke:black;stroke-width:8.44;stroke-miterlimit:2.61313}
    .str1 {stroke:black;stroke-width:33.74;stroke-miterlimit:2.61313}
    .str3 {stroke:black;stroke-width:3.78;stroke-miterlimit:2.61313}
    .fil0 {fill:black}
    .fil1 {fill:#BBBAE8}
   ]]>
  </style>
 </defs>
 <g id="Layer_x0020_1">
  <metadata id="CorelCorpID_0Corel-Layer"/>
  <g id="_105553401032704">
   <g>
    <path class="fil0 str0" d="M248.18 12.65c30.62,-2.15 49.55,7.27 70.56,16.42 49.91,21.75 84.64,72.3 84.64,128.35 0,69.45 -60.5,135.94 -127.68,140.99 -88.04,6.61 -168.42,-46.67 -166.46,-139.99 1.32,-62.84 38.78,-107.61 91.3,-133.59 14.65,-7.25 30.91,-11 47.65,-12.17z"/>
    <path class="fil1 str1" d="M268.91 16.92c26.89,-0.94 58.03,10.92 82.8,32.42 30.28,26.28 51.65,66.4 51.65,108.08 0,75.79 -58.38,137.78 -135.64,137.22 -55.16,-0.4 -94.91,-31.11 -117.63,-65.42 -14.43,-21.79 -18.12,-47.62 -18.21,-71.48 -0.08,-21.2 -2.83,-56.93 21.67,-86.83 22.04,-26.89 55.59,-51.91 115.35,-53.99z"/>
    <path class="fil0 str2" d="M252.87 139.93l15.34 -5.17c-2.3,21.6 -2.88,45.5 -1.72,64.8 6.62,4.23 17.28,-0.75 23.9,3.48 2.21,2.94 4.91,5.45 -5.11,10.32 -10.52,-1.6 -28.78,2.76 -36.43,-9.2 0,-19.88 -0.57,-43.78 4.03,-64.23z"/>
    <path class="fil0 str3" d="M248.53 101.56c19.89,2.36 26.43,27.28 19.03,38.49 -16.28,24.65 -38.36,23.53 -53.45,21.7 -9.22,-1.12 -29.83,-1.33 -44.02,-21.7 -8.82,-12.67 -4.73,-19.28 3.25,-28.16 17.18,-19.1 53.65,-12.9 75.18,-10.33z"/>
    <path class="fil0 str2" d="M367.28 109.6c-16.11,-5.68 -42,-4.36 -60.68,-2.14 -16.98,2.02 -20.73,20.99 -14.41,30.56 13.9,21.04 32.74,20.08 45.62,18.52 7.87,-0.96 28.23,-4.99 37.57,-18.52 3.83,-5.54 6.43,-23.3 -8.1,-28.42z"/>
    <path class="fil0 str2" d="M239.36 236.06c3.86,0.04 15.48,-6.21 19.34,-6.19 6.73,0.04 14,4.89 20.73,4.89 7.68,0 14.62,-6.25 20.21,-6.01 5.24,0.23 10.04,6.09 17.23,6.03 4.76,-2.97 4.28,-8.32 -1.11,-11.75 -6.66,-4.59 -11.21,-6.44 -19.29,-6.44 -5.86,0 -11.93,4.54 -17.79,4.54 -6.32,0 -12.6,-4.8 -18.93,-4.8 -5.21,0 -15.08,2.85 -20.99,6.91 -5.44,2.42 -6.81,11.23 0.6,12.82z"/>
    <path class="fil0 str2" d="M262.61 239.71c9.89,4.64 17.46,4.93 26.97,0 3.38,1.23 2.12,8.84 0,10.74 -9.36,7.22 -17.75,5.05 -26.97,0 -3.01,-5.06 -1.5,-12.09 0,-10.74z"/>
    <path class="fil0 str2" d="M298.1 185.67c1,0.69 -4.93,20.79 -5.41,21.26 -2.09,2.04 -7.81,1.66 -11.43,1.66l-12.54 0c-6.26,0 -11.39,-3.96 -11.39,-8.8l0 -0.01c0,-2.55 -1.06,-11.04 1.2,-12.65 0.77,-0.54 36.83,-3.35 39.57,-1.46z"/>
    <path class="fil0 str2" d="M192.89 225.18c-4.35,-12.57 -10.23,-22.57 -18.74,-31.85 -1.94,-4.24 1.5,-4.26 3.61,-2.13 9.18,8.27 15.61,19.19 18.74,31.85 0.39,4.55 -3.02,4.17 -3.61,2.13z"/>
    <path class="fil0 str2" d="M371.23 189.85c-5.28,8.46 -8.34,16.59 -9.75,25.93 -1.56,3.13 -3.19,1.13 -2.94,-1.11 0.5,-9.24 3.84,-18.14 9.75,-25.93 2.47,-2.37 3.85,-0.2 2.94,1.11z"/>
   </g>
   <path class="fil1 str1" d="M321.6 528.11c18.49,-6.14 41.51,-51.91 56.04,-53.84 20.43,-2.71 26.1,12.39 39.82,8.34 13.64,-4.03 12.77,-11.05 15.51,-18.34 7.42,-19.68 -19.53,-59.85 -46.8,-50.16 -12.19,4.33 -34.67,18.24 -61.85,33.5 -15.03,8.43 -49.02,24.72 -69.95,30 -17.71,4.47 -46.02,11.25 -65.12,12.52 -11.8,3.63 -43.74,8.48 -53.05,0.16 -12.6,-11.26 -7.16,-37.61 4.07,-50.87 29.8,-37.69 74.29,-13.48 114.1,38.19 44.5,-10.37 72.45,-42.43 108.71,-59.83 62.37,-37.81 102.73,61.29 64.73,73.67 -12.86,3.61 -28.4,-5.52 -48.26,-5.86 -6.4,-0.11 -19.78,15.06 -31.32,21.94 -16.62,13.97 -33.37,23.84 -34.53,24.61 -23.14,15.49 -51.94,26.43 -78.69,33.76 -60.94,16.7 -132.47,46.31 -177.15,24.8 -21.97,-10.57 -40.98,-39.61 -40.98,-63.33 0,-36.24 29.42,-98.31 48.52,-126.47 14.33,-21.13 64.97,-91.01 80,-104.39 55.13,43.1 166.59,61.63 238.43,-0.78 61.58,32.59 120.16,153.85 130.66,225.3 8.06,47.79 -41.61,72.86 -125.13,72.86 -49.67,-4.38 -154.34,-27.99 -132.85,-34.57 51.82,-15.88 63.44,-30.64 65.09,-31.19z"/>
   <path class="fil1 str0" d="M227.2 454.81c4.41,4.4 13.32,4.37 10.81,12.44 -1.92,6.15 -17.25,13.48 -33.36,11.34 -15.75,-2.1 -25.83,3.73 -34.59,3.64 -15.33,-0.17 -26.08,-3.21 -29.49,-11.48 -8.55,-20.72 8.55,-27.52 34.92,-34.01 13.54,-3.33 22.14,-0.46 33.94,7.1 5.07,3.25 14.49,7.69 17.78,10.98z"/>
   <path class="fil0" d="M140.06 282.16c8.51,6.14 17.35,9.31 25.6,14.5 -42.62,25.75 -63.96,79.63 -85.41,114.17 -7.43,11.96 -17,34.34 -26.05,59.58 -13.14,36.66 -19.24,65.67 1.72,95.87 2.83,4.07 11.43,12.72 23.85,16.16 5.61,1.55 16.71,5.4 28.3,5.38 7.15,-0.01 16.76,-1.21 23.43,-1.49 1.01,-0.04 10.76,-1.47 12.67,-2.28 3.56,-1.52 -3.67,9.52 -2.38,10.48l-59.75 7.46 -48.24 -27.45 -17.13 -31.95c1.09,-45.86 2.2,-71.92 28.15,-128.11 5.9,-12.78 14.17,-25.9 22.64,-40.09 16.27,-27.28 45.89,-60.61 72.59,-92.23z"/>
   <path class="fil0" d="M134.38 442.33c2.76,-17.65 22.82,-43.31 79.2,-23.18 5.72,2.04 19.34,12.33 27.45,19.14 8.58,7.2 32.2,24.54 39.19,30.34l-28.06 11.51c-11.19,-9.9 -38.56,-36.58 -48.94,-39.33 -35.55,-9.44 -49.01,-2.32 -57.22,18.22 -2.64,6.62 2.43,13.5 13.37,23.19 -26.29,-2.54 -32.38,-22.93 -25,-39.88z"/>
   <path class="fil0" d="M254.57 568.31c23.33,12.1 60.97,25.77 105.43,33.59 5.47,0.96 42.76,5.6 66.74,3.54 30.03,-2.59 51.68,-11.14 59.25,-17.41l19.19 -14.97 -22.07 -0.77c-5.56,4.92 -36.06,11.49 -66.22,11.33 -30.52,-0.16 -60.73,-7.08 -67.5,-7.66 -42.5,-3.65 -67.35,-14.6 -76.7,-22.64l-18.11 15.01z"/>
  </g>
 </g>
</svg>
