<?xml version="1.0" encoding="UTF-8"?>
<!DOCTYPE svg PUBLIC "-//W3C//DTD SVG 1.1//EN" "http://www.w3.org/Graphics/SVG/1.1/DTD/svg11.dtd">
<!-- Creator: CorelDRAW (Not for commercial use) -->
<svg xmlns="http://www.w3.org/2000/svg" xml:space="preserve" width="8.22406in" height="6.51529in" version="1.1" style="shape-rendering:geometricPrecision; text-rendering:geometricPrecision; image-rendering:optimizeQuality; fill-rule:evenodd; clip-rule:evenodd"
viewBox="0 0 2345.49 1858.15"
 xmlns:xlink="http://www.w3.org/1999/xlink"
 xmlns:xodm="http://www.corel.com/coreldraw/odm/2003">
 <defs>
  <style type="text/css">
   <![CDATA[
    .str0 {stroke:black;stroke-width:1.98;stroke-miterlimit:2.61313}
    .fil0 {fill:black}
    .fil2 {fill:#DED692}
    .fil1 {fill:#FCF800}
   ]]>
  </style>
 </defs>
 <g id="Layer_x0020_1">
  <metadata id="CorelCorpID_0Corel-Layer"/>
  <g id="_105553307729536">
   <path class="fil0" d="M2345.49 994.89c-484.93,490.85 -863.58,313.16 -1109.94,225.56 -9.74,1.03 -9.1,2.7 -22.7,2.7 5.46,23.44 42.38,72.95 17.83,157.53 -5.92,20.38 -11.55,25.2 -21.01,39.32 10.42,15.57 38.1,46.36 38.1,69.85 0,41.31 -24.52,69.1 3.16,149.24 9.04,26.18 14.09,47.16 33.59,64.83 18.34,16.61 80.73,24.44 80.73,84.37 0,17.33 -5.65,33.78 -15.87,41.28 -17.24,-4.6 -29.16,-22.23 -50.8,-22.23 -18.27,0 -26.2,9.53 -34.93,9.53 -13.73,0 -14.75,-13.64 -37.79,-6.33 -16.76,5.32 -19.46,9.81 -31.58,19.52 -21.81,17.46 -43.2,28.09 -73.51,28.09 15.61,-32.53 0.4,-60.33 -38.1,-60.33 -60.64,0 -99.43,36.59 -107.95,0 -45.08,0 -76.2,53.44 -76.2,9.52 0,-34.54 32.04,-81.11 64.34,-88.31 13.57,-3.02 22.24,-3.77 40.43,-3.77 7.7,-16.05 4.91,-15.64 20.41,-27.22 13.45,-10.04 14.98,-12.28 21.88,-28.92 50.48,-121.64 -29.77,-147.41 5.27,-194.76 6.23,-8.42 7.44,-8.93 12.76,-18.99 -38.1,-25.51 -70.6,-56.07 -96.6,-93.91 -10.46,-15.23 -13.28,-26.79 -20.88,-42.62 -18.73,4.36 -32.48,13.68 -52.23,11 -78.99,-10.74 -120.95,-53.85 -141.44,-58.62 -3.97,14.86 -23.38,24.11 -24.08,38.06 -1.1,22.05 23.56,43.42 41.53,52.44 8.5,4.27 13.41,5.48 21.73,10.02 55.87,30.52 8.45,69.9 8.45,124.9 0,40.15 38.42,67.97 7.86,99.93 -7.25,7.58 -10.26,10.89 -23.73,11.2 0,-11.14 -0.55,-17.34 -3.37,-25.21 -3.51,-9.8 -5.57,-12.65 -12.51,-19.24 -11.73,6.21 -15.05,10.14 -20.96,23.49 -20.05,45.28 0.09,69.73 -13.48,110.34 -24.82,74.26 -90.1,27.05 -147.6,61.96 -11.91,7.23 -14.74,13.41 -30.68,13.76 0,-18.61 5.28,-35.78 9.52,-53.98 -12.78,9.36 -0.11,7.21 -19.74,15.19 -30.46,12.39 -49.92,0.88 -82.31,9.77 -15.21,4.17 -34.54,11.83 -50.35,13.15 0,-26.93 7.96,-16.16 9.52,-34.93 -17.11,0 -30.04,3.87 -41.33,9.47 -12.52,6.2 -23.69,8.45 -34.87,15.93 0,-41.35 25.2,-75.68 56.67,-86.21 33.26,-11.12 33.57,4.48 50.43,-12.85 13.26,-13.62 30,-15.98 50.45,-22.79 35.65,-11.87 62.81,-27.16 87.7,-55.18 18.18,-20.45 43.68,-66.84 43.68,-102.38 0,-71.69 -167.26,-54.62 -182.03,-173.86 -7.46,-60.27 29.51,-143.68 57.12,-198.69 20.1,-40.05 36.01,-37.65 36.01,-56.07 0,-11.37 -15.74,-13.62 -25.4,-15.88 -13.22,8.85 -21.96,26.73 -33.96,39.07 -17.8,18.3 -31.37,11.48 -51.77,21.26 3.02,36.25 52.12,64.49 -18.16,59.48 -12.22,-0.87 -23.11,4.71 -29.46,16.72 9.6,18.15 36.21,21.71 38.1,44.45 -41.93,0 -51.35,1.21 -73.89,-21.36 -39.78,-39.83 -34.29,-93.99 -1,-136.08 22.62,-28.61 19.92,-29.04 34.64,-60.61 3.87,-8.3 21.21,-37.54 21.21,-42.29 0,-26.3 -34.93,-59.1 -34.93,-114.3 0,-38.28 53.98,-70.59 53.98,-117.47 0,-12.36 -16.39,-19.05 -28.58,-19.05 -41.48,0 -57.87,79.38 -155.57,79.38 -29.59,0 -60.98,-10.67 -76.74,-24.87 -20.66,-18.61 -55.07,-98.41 -8.59,-113.97 0.25,-0.09 1.21,-0.39 1.41,-0.45 0.19,-0.06 0.95,-0.18 1.36,-0.41 0,-23.91 -1.49,-37.23 12.7,-47.63l6.35 15.87c1.22,-14.63 4.27,-13.94 11.28,-23.79 10.64,-14.93 4.34,-13.88 17.29,-11.13 0,-16.07 2.16,-16.33 3.18,-28.58 11.27,-4.66 97.74,-39.8 80.49,-61.65 -8.93,-11.31 -89.57,-16.37 -105.89,-17.73 -2.9,6.05 -5.65,16.95 -6.35,25.4 -13.04,-8.74 -24.55,-32.59 -28.11,-12.69 -2.37,13.2 4.32,18.89 -6.15,20.47 -8.14,1.24 -9.01,-6.63 -22.88,-7.79l0 15.87c-20.77,-0.46 -28.25,-20.9 -44.45,-31.75 0,14.11 -1.65,18.52 3.18,28.57 -15.94,-1.32 -20.04,-12.26 -27.32,-23.48 -40.05,-61.67 -52.05,-15.83 -52.05,-138.45 0,-19.52 4.4,-35.84 9.88,-50.44 8.98,-23.89 15,-19.71 27.42,-36.08 25.33,-33.42 -19.12,-38.9 57.57,-69.42 25.37,-10.1 33.08,-26.79 59.56,-35.69l40.7 -22.8c17.01,-13.84 1.28,-58.61 36.64,-58.61 24.13,0 36.07,6.35 57.15,6.35 13.72,0 25.55,-18.79 44,-18.02 22.35,0.93 42.66,16.7 91.73,-24.05 48.97,-40.68 124.07,9.43 141.23,12.77 43.91,8.53 48,-12.55 130.3,72.9 60.77,63.09 54.2,111.7 71.73,166.4 6.68,20.86 21.25,35.95 25.55,57 8.18,39.99 6.01,59.94 45.39,72.09 12.21,3.77 4.45,1.34 13.69,5.36 7.07,3.07 8.67,3.47 16.23,5.99 18.92,6.3 38.01,15.98 54.54,24.84 51.15,27.42 88.24,73.76 120.04,121.26 18.73,27.99 6.28,24.49 38.28,41.09 32.6,16.9 61.08,52.75 78.27,83.66 10.38,18.67 15.81,34.85 25.36,54.02 8.47,16.99 20.53,34.08 30.78,48.59l37.25 45.3c373.35,371.46 583.72,382.63 1092.2,167.78z"/>
   <ellipse class="fil1 str0" cx="451.98" cy="156.59" rx="34.15" ry="33.27"/>
   <g>
    <path class="fil2" d="M156.37 280.21c0.04,-45.33 26.02,-66.34 29.93,-74.98 17.55,-4.1 15.89,11.01 23.83,16.52 -4.73,15.91 -34.39,44.49 -53.76,58.46z"/>
    <g>
     <path class="fil2" d="M726.91 324.75c3.21,-9.03 3.36,-20.61 3.7,-32.59 33.84,37.83 13.25,125.73 -0.03,171.88 24.39,-13.2 31.99,-39.95 40.7,-50.96 0.64,19.35 3.04,35.96 3.66,54.36 0.77,22.83 -4.78,33.52 -6.51,53.99 17.3,-9.66 30.6,-37.13 37.97,-44.33 8.92,24.16 4.08,55.25 1.95,81.79 22.74,-17.27 14.16,-20.67 23.52,-38.24 12.56,11.83 28.42,17.74 41.01,32.75 13.28,15.83 17.53,42.2 25.08,50.76 5.23,-70.66 -7.32,-62.3 -15.37,-99.99 52.66,27.21 70.4,98.09 84.51,114.78 4.42,-26.95 0.92,-46.17 -7.85,-66.08 -7.71,-17.5 -21,-36.4 -26.12,-50.25 19.1,7.14 44.92,41.08 55.06,59.26 60.1,107.72 31.7,54 61.88,166.91 8.46,31.65 -8.02,68.11 -24.52,84.28l0.18 -38.72c-16.24,16.97 -21.22,102.48 -79.34,122.03 0.4,-22.9 15.33,-66.92 11.85,-104.57 -8.76,14.47 -13.33,31.92 -25.57,40.69 4.08,-37.61 5.42,-68.87 -12.49,-97.56 -9.37,-15.01 -50.52,-59.86 -74.63,-25.97 7.83,17.7 20.86,4.42 41.79,49.16 15.61,33.38 3.16,49.62 -7.35,72.37 38.21,31.41 31.3,51.68 39.92,80.97 -17.83,-0.63 -13.45,-5.28 -21.16,1.83 15.92,14.81 36.66,28.41 47.45,52.55 16.01,35.81 3.35,57.04 -23.41,69.79 3.24,-13.14 4.6,-10.51 4.45,-25.27 -35.98,17.79 9.7,14.63 -88.79,41.42 -35.1,9.55 -47.49,42.59 -48.24,85.25 -14.32,-6.73 -30.34,-37.09 -18.68,-69.66 1.88,-5.24 9.79,-19.55 6.35,-22.87 -13.46,-5.43 -31.37,7.01 -41.61,13.12 -16.69,9.97 -21.4,10.14 -30.41,29.16 -6.5,-44.95 28.89,-82.5 60.37,-91.06 50.2,-13.65 42.49,20.03 98.17,-3.47 7.27,-3.07 6.3,-2.41 14.29,-4.82 0.47,-0.14 7.17,-2.22 7.31,-2.27 6.69,-2.64 3.55,-1.18 6.65,-3.33 -5.76,-6.41 -64.01,-20.2 -45.76,-63.63 -2.28,-1.38 -31.76,-0.32 -44.03,-31.08 -10.98,-27.51 9.47,-43.01 18.46,-57.13 -14.44,1.74 -23.9,9.14 -31.97,17.26 -3.81,3.84 -7.6,7.93 -11.24,14.23l-9.76 17.9c-14.49,-28.6 2.38,-61.91 9.17,-85.3 -19.99,13.84 -32.23,42.69 -40.17,47.41 -5.41,-105.92 72.66,-109.08 82.74,-174.03 -40.25,24.72 4.96,5.14 -61.9,34.17 -30.58,13.28 -50.91,32.81 -62.52,36.06 9.88,-30.8 56.96,-53.92 96.83,-126.06l-46.86 33.15c-14.26,9.22 -39.38,21.26 -60.18,22.66 12.28,-18.71 45.84,-34.31 45.2,-96.05 -7.38,8.12 -23.88,53.68 -66.03,54.13 17.39,-31.31 30.54,-37.05 39.69,-79.76 -14.7,9.34 -16.19,20.56 -31.09,26.83l15.71 -65.76c-7.47,7.37 -14.64,20.42 -22.4,26.87 -2.07,-26.24 13.73,-46.76 29.46,-81.67 13.3,-29.51 16.58,-58.94 4.45,-91.25 -9.27,23.22 -6.69,50.36 -24.16,64.7 -7.26,-35.07 17.17,-89.4 -2.08,-162.33 -9.37,-35.48 -3.62,-51.7 -9.22,-82.71 -5.47,-30.31 -18.38,-45.41 -29.48,-65.98 73.08,41.22 83.53,196.9 91.41,210.26z"/>
     <path class="fil2" d="M1101.36 1119.64c11.47,5.83 23.17,21.04 30.81,34.89 8.13,14.73 19.01,30.54 24.64,45.07 12.6,32.52 14.98,95.44 -13.57,109.1 8.38,-33.91 7.48,-83.92 -9.76,-111.32 -13.39,13.43 -2.21,69.98 -96.7,57.36l4.99 -2.23c25.71,-9.17 12.84,0.42 37.69,-19.57 -8.3,-28.22 -37.19,-47.6 -18.9,-82.53l28.79 0.52c-4.17,-4.44 1.48,-0.95 -7.5,-6.29 -4.35,-2.59 -7.96,-3.36 -12.12,-3.96 -8.91,-1.3 -18.67,-0.69 -27.42,0.77 -20.67,3.46 -25.96,10.5 -42.34,16.11 10.84,-33.89 31.2,-26.11 57.27,-39.18l-19.1 -12.7c15.97,-9.9 23.2,-12.43 28.94,-32.57 -12.7,2.49 -47.98,11.79 -52.8,12.07 4.68,-4.98 4.89,-8.57 10.6,-14.99 5.19,-5.85 8.18,-7.63 15.47,-13.2 9.82,-7.49 21.04,-15.76 29.57,-27.54 14.5,-20.02 24.71,-59.85 21.57,-90.98 -7.48,8.31 -10.8,25.18 -18.75,36.5 -6.99,9.95 -18.81,22.35 -27.99,28.62 8.02,-26.34 61.9,-86.06 56.65,-167.71 -10.11,12.83 -12.71,43.99 -39.85,62.34 1.1,-8.04 10.56,-29.57 13.93,-41.23 15.93,-55.18 1.08,-87.88 1.11,-141.9 0.02,-35.05 -7.33,-53.01 -16.84,-82.13 24.31,9.95 60.88,74.61 73.33,101.58 11.78,25.53 28.22,69.72 30.29,99.67 0.67,9.75 -2.89,32.85 -2.2,36.01 3.61,16.61 23.38,1.61 20.64,64.05 -1.26,28.71 -8.91,51.6 -12.1,77.42 -2.27,18.39 1.68,21.37 -10.07,31.16 -18.16,15.12 -6.09,2.9 -11.43,33.23 -6.7,38.07 -38.35,35.64 -46.84,43.56z"/>
     <path class="fil2" d="M1543.51 1222.11l6.8 -2.14c-11.97,-9.68 -18.94,-10.57 -29.2,-25.73 -41.72,-61.59 -20.65,-94.16 -20.58,-128.9 -24.38,20.79 -28.7,71.04 -8.22,110.03 -7.87,-1.63 -20.64,-14.96 -26.24,-23.23 -6.26,-9.26 -13.38,-21.69 -15.82,-35.72 -4.97,-28.64 3.28,-54.07 11.98,-75.46 -27.3,14.24 -42.32,38.12 -38.58,75.53l-8.02 -6.74c-17.71,-21.4 -3.82,-55.28 -2.12,-67.12 -7.66,6.66 -13.92,16.43 -21.79,21.52 0.02,-34.32 16.46,-42.77 25.2,-61.82 -52.38,11.56 -68.54,48.28 -72.38,95.99 -2.76,-1.17 -7.07,0.1 -12.82,-14.91 -28.27,-73.71 34.53,-106.35 37.39,-117.87 -70.65,14.25 -78.58,57.86 -84.72,62.45 5.41,-57.76 25.04,-68.33 32.19,-86.61 -30.15,12.04 -40.55,28.03 -53.38,50.33l-7.47 16.79c-1.43,3.61 -1.38,3.65 -2.76,5.89 -15.53,-45.48 12,-69.62 17.82,-82.76 -27.08,12.01 -58.8,51.01 -67.5,77.97 -5.94,18.42 -5.12,41.24 1.49,64.51 10.19,35.89 20.35,38.25 26.2,48.19l-5.59 -31.89c9.8,10.01 34.59,70.84 95.74,69.37 -7.62,-8.63 -19.75,-15.92 -28.84,-24.92 -9.99,-9.89 -16.68,-20.78 -20.92,-36.83l29.07 25.57c28.57,21.51 45.27,45.96 97.69,53.59 -10.81,-9.11 -15.95,-11.75 -23.82,-29.08 29,20.3 33.43,34.87 82.07,41.63 42.07,5.85 46.95,38.7 87.16,32.36z"/>
     <path class="fil2" d="M1603.1 1212.78c-8.59,-11.98 -30.54,-25.85 -31.86,-56.77 3.99,-19.04 16.31,-25.46 23.06,-40.77 -83.19,-5.99 -52.14,111.33 8.8,97.55z"/>
     <path class="fil2" d="M1650.29 1211.78c-6.58,-9.19 -23.42,-19.82 -24.43,-43.54 3.06,-14.6 12.5,-19.52 17.68,-31.27 -63.79,-4.6 -39.99,85.37 6.75,74.81z"/>
     <path class="fil2" d="M1707.51 1218.87c-6.58,-9.19 -23.42,-19.82 -24.44,-43.54 3.06,-14.6 12.5,-19.52 17.69,-31.27 -63.79,-4.6 -39.99,85.37 6.75,74.81z"/>
     <path class="fil2" d="M1753.66 1211.14c-5.08,-7.08 -18.05,-15.28 -18.83,-33.56 2.36,-11.26 9.64,-15.05 13.63,-24.1 -49.17,-3.54 -30.82,65.8 5.2,57.66z"/>
    </g>
    <path class="fil2" d="M378.88 111.43c20.86,-48.9 87.69,-66.42 103.71,-64.85 11.04,5.7 15.75,18.73 8.91,19.2 -24.9,1.75 -98.6,35.2 -112.62,45.65z"/>
    <path class="fil2" d="M203.2 155.9c22.18,-2.07 65.49,2.68 80.68,-5.19 10.42,-5.39 44.49,-17.92 53.3,-17.66 62.86,45.37 -78.5,88.87 -97.68,68.41 23.6,14.33 104.66,16.01 166.24,52.57l-30.12 3.96c32.13,14.31 89.57,5.52 113.83,-9.1 47.94,-28.89 62.15,-0.65 105.8,6.16 -5.16,-15.7 -16.75,-28.92 -22.95,-45.59 -6.8,-18.28 -10.27,-34.64 -15.47,-52 17.27,8.66 15.43,17.33 34.81,22.44l-15.86 -48.13c42.62,33.36 38,73.24 44.85,105.68 5.52,26.16 20.03,28.45 24.18,52.14l-1.33 17c-0.14,0.39 -0.44,1.31 -0.6,1.67 -6.02,13.15 -11.3,3.62 -32.75,-0.42 -36,-6.78 -25.94,12.24 -59.42,-3.7 -55.1,-26.24 -100.18,32.95 -102.19,33.89 -13.49,6.32 -36.63,-14.4 -67.22,-0.47 -35.31,16.07 -68.88,36.16 -119.76,29.69 -55.03,-7 -132.43,-26.74 -148.61,-82.44 -6.78,-23.35 -4.92,-43.42 6.02,-63.51 35.62,-65.41 78.17,-44.45 84.14,-63.92 0.06,-0.19 -0.07,-1.03 0.13,-1.48z"/>
    <path class="fil2" d="M534.14 80.41c-10.74,-25.17 -47.34,-29.95 -51.55,-33.83 -10.72,1.87 -22.22,13.95 -25.32,18.89 21.44,-2.32 62.82,11.76 76.88,14.94z"/>
    <g>
     <path class="fil2" d="M712.3 1213.66c-22.42,-14.38 -55.6,-24.49 -100.94,-72.97 -25.03,-32.47 -38.55,-46.04 -44.85,-77.42 -38.87,40.38 107.51,171.39 145.79,150.39z"/>
     <path class="fil2" d="M489.41 769.68c-12.51,-8.26 -39.1,-48.84 -50.81,-66.87 -3.26,22.03 13.85,66.79 50.81,66.87z"/>
     <path class="fil2" d="M645.12 715.62c-13.06,-14.15 -31.31,-114.51 -40.37,-140.6 -10.83,26.47 -5.7,129.14 40.37,140.6z"/>
    </g>
    <g>
     <path class="fil2" d="M510.39 587.78c12.57,-30.44 42.56,-37.05 45.58,-79.73 -21.81,8.51 -25.95,23.86 -75.13,43.21 -28.55,11.24 -59.38,20.27 -77.28,40.19 18.29,-6.06 39.75,-14.19 59.2,-12.05 -34.85,26.47 -63.76,27.46 -116.76,69.07 -38.45,30.2 -87.73,57.76 -142.25,40.72 13.88,-11.39 31.65,-1.87 81.84,-47.3 24.46,-22.14 46.17,-41.56 67,-63.06 70.31,-72.59 122.89,-58.75 132.09,-126.12 -9.14,13.99 -26.27,22.23 -48.39,25.3 9.96,-22.07 25.7,-24.35 37.99,-53.83 9.84,-23.6 1.98,-60.71 29.76,-57.86 22.54,2.31 26.91,17.85 64.64,-12.7 8,-6.48 16.59,-15.44 28.33,-16.06 44,-2.29 17.57,55.59 17.55,55.64 -3.84,15.19 20.17,45.67 -14.24,106.42 -19.81,34.98 -52.65,70.9 -89.93,88.16z"/>
     <g>
      <g>
       <path class="fil2" d="M390.76 409.93c2.21,-6.95 8.39,-20.86 5.83,-28.21l-19.63 2.93c3.16,8.35 6.93,18.21 13.8,25.29z"/>
       <path class="fil2" d="M341.02 426.94c-4.25,-10.92 -14.07,-24.6 -12.15,-37.36l24.77 -2.58c-2.51,14.56 -5,26.57 -12.62,39.94z"/>
       <path class="fil2" d="M370.95 423.09c-5.51,-8.58 -18.82,-25.08 -18.29,-36.02l29.05 -3.13c-0.92,12.53 -4.54,26.94 -10.76,39.15z"/>
       <path class="fil2" d="M313.32 434.12c-5.79,-11.31 -20.83,-31.5 -18.22,-44.71l33.77 0.16c-3.41,15.07 -5.18,30.7 -15.55,44.54z"/>
       <path class="fil2" d="M283.33 435.25c5.45,-11.12 19.31,-32.94 16.85,-45.94l-33.55 0.7c3.21,14.83 6.93,31.62 16.7,45.24z"/>
       <path class="fil2" d="M194.67 422.92c-3.05,-10.06 -11.6,-30.18 -8.01,-40.88l27.35 3.98c-4.44,12.17 -9.74,26.53 -19.34,36.9z"/>
       <path class="fil2" d="M257.36 431.81c-4.59,-10.29 -17.98,-29.9 -15.58,-41.77l31.23 -0.04c-3.09,13.53 -6.81,29.5 -15.64,41.81z"/>
       <path class="fil2" d="M223.01 431.54c-3.78,-11.31 -14.31,-33.98 -10.03,-45.87l33.21 5.04c-5.29,13.51 -11.61,29.44 -23.18,40.83z"/>
       <path class="fil2" d="M167.79 419.02c-3.05,-10.06 -11.6,-30.17 -8.01,-40.88l27.35 3.99c-4.44,12.17 -9.74,26.53 -19.34,36.9z"/>
       <path class="fil2" d="M138.33 408.66c-1.71,-8.66 -7.16,-26.18 -3.25,-34.82l24.7 4.3c-4.73,9.8 -12.56,22.66 -21.45,30.52z"/>
      </g>
      <g>
       <path class="fil2" d="M394.9 476.19c6.04,4.09 19.51,11.18 22.05,18.54l-17.22 9.86c-2.7,-8.52 -5.84,-18.59 -4.83,-28.4z"/>
       <path class="fil2" d="M350.01 497.98c3.47,9.66 4.85,24.35 13.45,31.67l17.85 -12.54c-10.02,-8.18 -18.59,-14.68 -31.3,-19.14z"/>
       <path class="fil2" d="M373.21 486.06c1.16,8.04 1.77,24.92 7.8,31.24l19.13 -13.29c-7.1,-7.06 -16.8,-13.84 -26.92,-17.95z"/>
       <path class="fil2" d="M329.77 507.95c2.09,10.58 2.68,31.96 11.37,39.4l22.43 -17.88c-10.21,-8.26 -19.61,-17.75 -33.81,-21.52z"/>
       <path class="fil2" d="M275.53 565.05c7.39,2.53 23.29,6.1 27.97,12.99l-15.28 14.63c-5.17,-8.05 -10.99,-17.19 -12.69,-27.62z"/>
       <path class="fil2" d="M308.35 529.74c2.5,8.46 5.79,26.51 13.26,32.36l19.9 -15.26c-8.73,-6.49 -21.64,-14.26 -33.16,-17.09z"/>
       <path class="fil2" d="M287.72 547.27c3.19,8.23 7.97,25.94 15.89,31.15l18.56 -16.86c-9.24,-5.74 -22.74,-12.42 -34.46,-14.29z"/>
       <path class="fil2" d="M260.5 579.52c7.38,2.53 23.29,6.1 27.97,12.99l-15.28 14.63c-5.17,-8.05 -10.99,-17.2 -12.69,-27.62z"/>
       <path class="fil2" d="M244.82 595.81c7.56,1.93 23.7,4.21 28.93,10.7l-14.06 15.81c-5.8,-7.6 -12.33,-16.26 -14.87,-26.51z"/>
       <path class="fil2" d="M238.52 611.2c5.64,2.23 17.84,5.57 21.22,11.09l-12.38 10.79c-3.72,-6.43 -7.9,-13.73 -8.84,-21.88z"/>
      </g>
     </g>
    </g>
    <path class="fil2" d="M168.06 282.8c0.04,-45.33 26.02,-66.34 29.93,-74.98 17.55,-4.1 15.89,11.01 23.83,16.52 -4.73,15.91 -34.39,44.49 -53.76,58.46z"/>
   </g>
  </g>
 </g>
</svg>
