<?xml version="1.0" encoding="UTF-8"?>
<!DOCTYPE svg PUBLIC "-//W3C//DTD SVG 1.1//EN" "http://www.w3.org/Graphics/SVG/1.1/DTD/svg11.dtd">
<!-- Creator: CorelDRAW (Not for commercial use) -->
<svg xmlns="http://www.w3.org/2000/svg" xml:space="preserve" width="5.94609in" height="4.86243in" version="1.1" style="shape-rendering:geometricPrecision; text-rendering:geometricPrecision; image-rendering:optimizeQuality; fill-rule:evenodd; clip-rule:evenodd"
viewBox="0 0 1167.32 954.58"
 xmlns:xlink="http://www.w3.org/1999/xlink"
 xmlns:xodm="http://www.corel.com/coreldraw/odm/2003">
 <defs>
  <style type="text/css">
   <![CDATA[
    .fil0 {fill:#080808}
    .fil2 {fill:#A4CC97}
    .fil1 {fill:#00FF11}
    .fil3 {fill:#A4CC97}
   ]]>
  </style>
 </defs>
 <g id="Layer_x0020_1">
  <metadata id="CorelCorpID_0Corel-Layer"/>
  <g id="_105553302534624">
   <path class="fil0" d="M452.73 692.34c-1.47,-27.76 21.18,-28.76 28.11,-56.92 8.01,-32.56 18.22,-34.54 34.05,-52.81 -12.32,4.13 -14.48,7.43 -21.43,14.13 8.87,-35.07 26.65,-44.69 43.27,-62.58l19.41 -17.94c-11.19,1.75 -19.06,5.53 -26.48,11.62 -6.75,5.54 -12.56,13.27 -18.96,17.84 3.31,-41.63 46.37,-54.19 53.85,-60.14l-22.05 1.55c7.16,-3.27 9.48,-10.01 34.58,-14.41 16.27,-2.85 31.83,-1.8 43.92,3.53 17.7,7.81 41.96,32.09 48.21,51.33 -8.52,-4.88 -22.97,-25.27 -54.95,-17.92 1.42,1.09 1.46,1.06 3.81,2.29l10.88 6.26c14.25,10.28 24.37,18.47 30.43,39.8 -11.91,-6.14 -17.71,-20.22 -56.56,-27.96 2.69,4.5 31.74,12.95 36.45,61.93 -7.62,-2.75 -25.37,-47.7 -77.42,-33.69 -10.6,2.85 -10.04,5.87 -11.03,7.66 32.13,5.96 55.94,19.52 60.1,55.91 -12.32,-7.28 -16.91,-19.03 -40.21,-21.46 2.9,5.71 9.09,10.64 13.08,16.31 -7.93,-1.99 -29.95,-13.81 -45.74,-3.28l-5.14 4.97c25.67,0.1 40.83,11.98 48.58,31.52 -13.92,-7.42 -30.61,-14.81 -50.41,-13.44 -9.69,0.67 -18.64,4.63 -25.37,8.23 -6.02,3.22 -15.97,10.96 -17.63,16.19 27.92,-11.17 61.75,-4.69 74.15,13.32 -23.59,-2.49 -44.23,-19.09 -88.99,4.91 -11.01,5.9 -12.11,10.58 -19.53,18.02 -8.26,16.69 3.11,55.77 10.57,68.51 16.82,28.75 13.17,6.58 17.78,41.81 2.48,19 12.34,28.42 22.63,42.09 13.45,17.85 21.47,12.76 7.16,36.7 -6.27,10.48 -17.48,33.43 -16.17,45.94 1.16,11.15 12.27,8.14 20.95,9.44 14.06,2.11 9.57,19.64 39.39,10.23 12.32,-3.88 15.63,-11.72 31.36,-7.5 13.16,3.54 16.6,7.82 34.83,6.59 13.75,-0.92 24.52,0.68 39.24,0.17 4.02,-0.14 3.63,3.28 4.84,-3.04 1.67,-8.68 -4.91,-14.44 15.99,-11.6 8.15,1.11 28.85,10.09 28.07,-2.11 -0.45,-7.01 -6.7,-10.57 5.43,-10.07 8.41,0.34 12.79,0.03 16.51,-1.75 -1.56,-20.09 -18.85,-28.15 -31.44,-39.4l-12.8 -12.97c-6.21,-5.45 -8.83,-5.86 -16.4,-8.94 -13.41,-5.46 -14.19,-8.56 -21.1,-20.05 8.59,-0.47 9.42,-2.26 18.72,-2.87l60.13 0.25 -2.53 -10.11c11.2,-0.67 13.47,2.64 24.41,2.03 -1.69,-30.62 -38.67,-34.85 -47.36,-61.65 -5.36,-16.54 -1.38,-15.25 5.11,-26.65 5.77,-10.13 2.74,-17.47 12.56,-22.93 20.63,-11.46 39.57,-19.86 57.09,-36.76 4.6,-4.44 4.11,-6.6 10.35,-8.64 0.7,12.75 4.24,19.05 9.27,27.81 15.06,26.17 15.62,21.49 34.36,37.96 10.58,9.3 23.32,36.09 19.31,50.8 -2.27,8.34 -5.64,18.93 -2.31,30.27 4.58,15.57 -0.29,10.01 -6.06,24.1 -2.74,6.69 -5.81,22.52 -2.36,28.81 13.26,5.49 27.85,-7.12 39.94,0.84 13.53,8.9 9.94,11.96 30.33,15.22 17.24,2.75 21.51,-6.43 40.15,-6.78 15.48,-0.29 26.53,2.49 42.79,-2.26 -1.53,-5.24 -2.46,-4.84 -3.99,-10.08 7.5,-1.04 3.63,-1.9 10.33,-0.66 21.06,3.89 5.23,4.96 37.89,3.16 -1.19,-21.62 -15.88,-44.62 -30.8,-51.02 -27.79,-11.95 -26.45,-11.14 -41.72,-38.84 -3.87,-7.02 -10.45,-20.14 -11.36,-29.11 -6.38,-62.64 -9.95,-43.43 -29.69,-97.74 -4.47,-12.29 2.09,-20.47 0.13,-34.59 -2.25,-16.17 -13.41,-14.64 -1.45,-27.35 14.31,-15.2 44.74,-8.94 61.15,-1.16 9.97,4.73 16.17,8.59 27.29,11.33 10.57,2.6 23.6,3.47 37.48,1.67 19.56,-2.52 39.54,-22.61 46.1,-36.84 19.29,7.98 66.77,-33.75 59.71,-101.18 -1.1,-10.5 -4.61,-18.7 -7.45,-28.18 -3.39,-11.34 4.19,-15.19 -4.71,-25.48 -5,-5.78 -11.99,-11.14 -17.5,-16.81 20.31,-34.27 30.26,-83.5 22.5,-125.06 -2.64,-14.12 -10.09,-17.36 -17.03,-5.13 -9.22,16.26 -17.63,32.03 -30.24,46.15 -5.1,5.71 -39.11,35.66 -45.55,26.28 -2.16,-3.14 -1.82,-8.01 -1.33,-12.79 3.34,-32.6 -6.65,-28.86 -25.3,-37.45 5.19,-12.55 7.45,-25.39 14.07,-37.86 12.45,-23.42 28.31,-41.16 42.95,-62.44 19.67,-28.58 42.19,-45.59 63.33,-94.64 8.04,-18.64 14.58,-38.99 17.03,-59.63 1.35,-11.37 2.35,-13.14 -3.24,-22.42 -11.43,3.34 -15.06,17.68 -21.39,26.42 -39.97,55.22 -66.63,77.37 -119.91,120.46 -18.03,14.58 -35.74,29.64 -56.15,40.85 -17.98,-29.88 -8.99,-16.73 -20.06,-21.22 12.43,-26.99 26.75,-54.89 36.43,-82.93 5.19,-15.05 8.78,-28.95 12.11,-46.12 1.77,-9.12 3.47,-16.2 3.09,-26.58 -0.67,-18.34 -0.72,-13.61 -8.26,-23.63 -12.38,7.45 -11.67,14.59 -17.92,27.9 -6.75,14.38 -42.94,75.97 -58.51,81.06 0.25,-9.02 6.13,-23.62 -0.39,-32.27 -8.55,-11.35 -21.47,-5.02 -29.46,-8.9 -12.16,-5.9 0.1,-46.11 -39.76,-30.94 -12.86,4.89 -15.63,6.72 -26.03,-2.81 -10.07,-9.24 -21.27,-26.05 -36.49,-14.14 -6.22,4.87 -4.44,5.37 -7.84,10.92 -10.3,16.79 -42.2,-9.05 -58.47,-5.33 -10.97,2.51 -12.56,15.41 -16.75,22.57 -11.66,19.91 -44.33,-8.4 -57.12,12.32 -6.52,10.56 -2.35,19.12 -5.13,31.22 -2.95,12.84 -15.09,11.62 -25.2,14.86 -37.05,11.9 -18.93,33.22 -14.28,47.43 -3.15,4.05 -11.97,12.92 -16.8,15.88 -8.33,5.09 -14.83,6.24 -22.39,12.5 -19.33,16 -20.96,4.61 -54.32,16.45 -22.49,7.99 -37,20.89 -57.37,30 -4.3,1.92 -7.58,4.13 -11.24,6.2 -10.78,6.12 -11.82,6.08 -17.97,16.46 8.81,-0.29 4.83,-1.82 8.75,2.95 -9.96,2.9 -21.35,11.04 -29.74,17.31l-20.04 16.23c-4.09,3.7 -3.31,0.83 -4.65,7.23 6.62,-0.92 4.38,-1.79 11.89,-2.37 -1.6,7.67 -16.67,15.79 -23.12,21.61 -7.05,6.36 -14.5,15.85 -21.22,23.31 -6.41,7.11 -12.95,17.52 -18.03,26.17 -6.59,11.21 -9.69,18.16 -15.03,30.49 -4.64,10.71 -8.22,20.25 -13.53,30.2 -5.37,10.07 -10.3,18.05 -16.58,27.46 -12.13,18.18 -21.89,37.39 -34.68,55.2 -14.08,19.6 -34.21,42.51 -52.98,58.34 -21.09,17.8 -43.46,34.15 -68.65,45.94 -10.65,4.98 -20.45,8.63 -33.73,12.11 -35.61,9.34 -53.33,2.74 -84.1,4.43 7.52,23.01 52.71,35.72 80.16,39.53 48.97,6.81 115.53,4.12 163.57,-14.92 40.38,-16.01 40.01,-14.5 47.35,-45.48 3.73,-15.74 -3.66,-43.05 4.19,-69.49l4.86 -10.29c-0.93,33.25 -2.95,32.82 4.5,66.02 1.87,8.33 -9.34,33.16 -7.8,61.23l-5.8 -11.7c-20.12,5.87 -32.23,29.95 -29.85,51.41 1.25,11.33 5.8,25 8.48,34.38 3.74,13.09 -3.68,18.16 -8.45,29.09 -9.09,20.83 4.86,51.79 -0.66,74.28 -5.47,22.29 -23.88,26.59 -22.81,59.32 18.83,-1.04 29.06,-8.24 45.25,-5.18 8.65,1.63 14.27,4.18 23.26,-0.17 8.98,-4.34 6.87,-10.02 16.42,-11.34 -4.13,23.51 -5.18,12.16 21.2,10.73 14.79,-0.8 27.54,2.04 43,1.19 1.71,-4.13 1.15,-6.33 2.86,-10.46 14.06,-0.77 14.26,2.65 25.87,2.01 -1.4,-25.37 -13.67,-33.87 -27.05,-46.12 -7.49,-6.86 -10.18,-12.21 -12.95,-23.76 -4.32,-18.01 0.49,-13.53 2.54,-28.9 2.21,-16.52 -7.09,-11.95 6.58,-28.15 1.1,-1.31 0.76,-0.82 2.31,-2.81l11.24 -15.98c7.45,-11.62 14,-22.52 18.14,-35.83 2.01,-6.46 1.32,-9.28 5.66,-12.84 3.49,10.68 20.5,9.18 30.67,8.62z"/>
   <path class="fil1" d="M888.73 334.55c14.12,-0.78 26.15,9.4 26.89,22.73 0.73,13.33 -10.12,24.77 -24.23,25.55 -14.12,0.78 -26.15,-9.4 -26.89,-22.73 -0.73,-13.33 10.12,-24.77 24.23,-25.55z"/>
   <g>
    <path class="fil2" d="M1032.99 427.39c11.12,7.35 21.13,15.73 36.8,8.63 2.64,-14.92 -4.29,-25.04 -15.42,-29.5 -19.54,-7.84 -21.31,4.11 -21.38,20.87z"/>
    <path class="fil3" d="M898.4 491.55c14.6,3.47 28.56,9.45 25.92,26.81 -9.88,0.66 -51.94,-14.54 -70.88,1.71 31.97,1.49 48.41,13.49 69.78,16.54 24.79,3.53 21.26,-5.56 53.33,11.49 5.44,2.89 9.82,7.35 12.42,12.06 -12.72,-2.24 -13.17,-6.53 -31.36,-5.35 4.63,3.47 37.88,19.57 45.41,21.8 18.18,5.38 41.8,-0.25 53.09,-11.61 -20.11,0.49 -25.16,-1.17 -40.48,-9.69 -5.07,-2.82 -11.53,-6.85 -15.61,-9.95l-14.12 -11.42c-3.04,-2.65 -3.34,-3.5 -5.93,-6.2 -9.28,-9.65 -40.05,-43.19 -46.47,-45.47 0.01,0 1.48,-2.88 0.15,1.18 -1.12,3.41 -0.69,2.37 -2.07,4.39 -9.13,-22.48 -26.77,-11.69 -33.18,3.69z"/>
    <path class="fil3" d="M950.06 233.79c6.45,6.02 12.91,6.29 24.55,12.88 8.23,4.66 14.02,12.04 22.38,15.83l-6.78 -16.78c6.56,-5.66 23.29,-29.62 37.85,-44.71 7.93,-8.22 13.68,-12.94 20.8,-20.34 26.35,-27.41 82.63,-79.18 90.39,-117.98 -1.75,4.04 -35.83,42.35 -40.61,46.94 -14.63,14.05 -31.35,29.51 -48.21,43.08 -28.77,23.15 -74.26,67.99 -100.36,81.08z"/>
    <path class="fil3" d="M1070.62 490.05c15.12,14.99 30.46,-13.08 47.72,50.5 16.43,-14.15 14.04,-72.77 1.84,-92.69 -12.7,6.2 -22.7,28.94 -32.29,34.67 -5.36,3.2 -12.11,3.73 -17.26,7.53z"/>
    <path class="fil3" d="M632.38 163.96c2.52,-8.29 21.88,-36.17 18.92,-44.99l-44.99 3.87c3.65,10.04 18.16,32.57 26.07,41.13z"/>
    <path class="fil3" d="M664.56 113c4.55,-6.95 29.86,-27.4 29.51,-36.32l-42.44 -8.54c0.66,10.22 7.95,34.86 12.93,44.86z"/>
    <path class="fil3" d="M714.27 81.52c6.68,-4.93 37.53,-15.31 40.3,-23.8l-36.83 -22.76c-2.93,9.81 -4.66,35.45 -3.47,46.56z"/>
    <path class="fil3" d="M774.65 63.87c7.41,-1.41 36.74,2.24 42.35,-3.62l-21.19 -33.13c-6.26,6.88 -17.77,27.18 -21.16,36.74z"/>
    <path class="fil3" d="M831.29 65.78c5.44,2.86 22.31,20.05 28.85,19.15l3.27 -31.87c-7.48,1.21 -25.11,8.34 -32.12,12.72z"/>
    <path class="fil3" d="M868.01 95.87c5.01,3.56 19.42,22.86 26.03,22.85l7.51 -31.15c-7.58,0.2 -26,4.9 -33.54,8.3z"/>
    <path class="fil3" d="M723.4 101.92c-1.58,67.57 31.31,103.5 82.29,138.44 -74.65,-10.06 -119.65,-74.31 -82.29,-138.44z"/>
    <path class="fil3" d="M817.35 86.21c-22.01,40.19 -13.41,72.07 6.4,109 -41.81,-29.32 -48.88,-82.03 -6.4,-109z"/>
    <path class="fil3" d="M1079.14 355.76c0.22,0.18 18.45,18.42 19.14,18.68 -3.87,-8.14 16.15,-23.2 22.61,-30.74 10.31,-12.04 12.41,-40.78 14.43,-55.41 -4.87,13.41 -14.46,29.49 -25.27,39.3 -8.86,8.05 -22.72,23.44 -30.91,28.17z"/>
    <g>
     <path class="fil3" d="M1012.07 519.31c-3.27,1.31 -10.34,3.28 -12.29,6.49l7.21 6.23c2.14,-3.74 4.55,-7.99 5.07,-12.72z"/>
     <path class="fil3" d="M1018.98 524.93c-3.2,1.46 -10.18,3.75 -11.98,7.04l7.49 5.9c1.97,-3.83 4.18,-8.19 4.49,-12.94z"/>
     <path class="fil3" d="M1025.63 529.6c-3.04,1.78 -9.74,4.78 -11.19,8.24l8.06 5.09c1.56,-4.02 3.31,-8.58 3.13,-13.33z"/>
     <path class="fil3" d="M1032.13 537.7c-3.36,-0.14 -8.48,1.39 -10.14,4.76l7.72 5.59c1.81,-3.91 2.3,-5.59 2.42,-10.35z"/>
     <path class="fil3" d="M1041.06 539.56c-3.04,1.78 -10.58,4.53 -12.04,7.99l8.9 5.34c1.56,-4.02 3.32,-8.58 3.13,-13.33z"/>
     <path class="fil3" d="M1047.81 545.54c-3.77,0.77 -8.69,4.51 -9.88,7.36l7.3 3.6c1.28,-3.3 2.72,-7.05 2.58,-10.96z"/>
     <path class="fil3" d="M1003.3 515.16c-2.6,1.52 -8.35,4.09 -9.59,7.06l6.91 4.37c1.34,-3.44 2.84,-7.35 2.69,-11.43z"/>
     <path class="fil3" d="M1092.47 566.39c23.79,-34.14 -0.25,-62.33 -30.58,-65.95 -15.55,9.92 -17.46,8.14 -13.35,10.28 24.39,12.74 40.44,33.44 43.93,55.67z"/>
     <g>
      <path class="fil3" d="M861.8 304.07c-8.41,4.87 -48.77,-1.96 -43.8,-44.51 -18.05,4.61 -25.05,12.35 -54.05,9.56 -17.54,-1.69 -33.88,-4.81 -48.44,-11.07 -16.62,-7.15 -25.54,-12.3 -39.11,-21.79l-35.31 -28.06c18.93,42.89 79.69,81.34 129.35,86.46 18.24,1.88 23.84,-6.14 37.77,5.14 11.81,9.57 33.76,38.28 20.13,59.28 -8.56,-3.58 -0.21,-3.83 -14.68,-10.74 -47.37,-22.62 -80.62,17.89 -165.45,-9.82 5.92,12.37 28.93,20.25 47.06,21.97 31.61,3 82.6,-16.23 91.47,5.3 10.01,24.28 -31.93,28.46 -29.45,72.99 15.16,-5.6 7.94,-30.28 39.87,-37.66 54.41,-12.58 28.93,34.79 28.33,35.3 -5.42,4.47 -9.51,0.61 -18.12,8.05 -11.51,9.93 -17.24,25.16 -9.33,37.58 5.2,8.15 8.64,6 14.71,12.07 3.74,-4.65 0.88,-5.17 3.16,-10.32 3.1,8.17 11.74,15.12 21.78,15.71 -4.63,-13.31 -5.82,-12.27 -5.42,-28.13l2.21 2c6.55,6.52 11.21,14.17 22.99,13.02 -0.33,-9.02 -4.41,-14.49 -1.48,-22.31 0.26,-0.11 0.75,-0.41 0.86,-0.1 0.11,0.3 0.74,-0.05 0.87,-0.02 1.68,0.43 1.54,0.34 2.75,0.99 5.37,2.86 8.99,7.5 22.05,7.82 -0.49,-4.89 -1.59,-6.6 -3.19,-10.89 -0.19,-0.51 -1.5,-4.56 -1.51,-4.87 -0.54,-12.04 13.1,-3.99 19.42,-4 7.43,-0.02 9.84,-4.49 17.45,-6.69 13.49,-3.91 31.45,-3.14 40.13,3.14 -8.96,-0.32 -17.28,-1.32 -25.43,3.71 1.85,1.49 -1.76,-0.54 3.23,2.03 11.57,5.93 21.67,6.03 27.72,16.53 17.03,29.52 27.55,30.29 65.4,13.67 21.59,-9.48 26.17,-1.56 44.17,-3.76 -0.97,-21.18 -9.26,-14.54 -22.95,-21.34 -9.35,-4.65 -22.69,-12.12 -24.56,-20.12 12.38,5.39 21.31,15 39.83,15.76 20.04,0.82 32.09,-7.28 28.06,-27.62 -7.31,-36.96 -45.96,-37.73 -63.68,-54.34l8.65 -7.34c-8.79,-4.78 -21.28,-2.49 -31.67,-5.07 -10.98,-2.73 -18.1,-7.48 -26.02,-10.43 3.11,14.53 16.16,27.13 28.96,32.51 6.83,2.87 8.53,1.47 11.8,7.96 -9.44,11.31 -27.91,6.87 -37.06,0.26l-3.2 8.58c-0.95,2.49 -2.72,6.56 -2.74,9.16 -0.06,8.13 6.56,9.75 10.02,16.51 -8.24,-0.6 -13.46,-3.36 -23.03,-3.89 -8.35,-0.47 -16.04,-0.98 -24.74,-1.46 -15.49,-0.85 -39.77,3.82 -47.82,-6.69 24.66,2 55.68,-0.43 51.03,-29.63 -13.93,15.29 -34.56,26.52 -63.29,20.03 -16.38,-3.7 -35.66,-14.11 -37.09,-35.97 -5.68,-14.84 6.29,-36.82 11.54,-40.78 16.91,-16.4 36.67,-16.19 60.3,-7.9 10.7,3.75 20.3,8.8 27.06,15.3 5.9,5.68 8.56,17.55 15.16,21.4 -0.66,-9.95 0.03,-16.4 -3.23,-25.54 -3.16,-8.85 -8.08,-12.54 -11.17,-21.09 9.97,2.55 16.11,9.03 26.16,11.59 -8.14,-8.24 -10.43,-13.13 -23.85,-18.66 -12.3,-5.07 -22.31,-6.12 -35.8,-9.74 9,-19.11 14.26,-4.99 23.26,-52.98 1.9,-10.15 3.82,-19.59 6.47,-29.99 4.15,-16.29 9.8,-23.01 7.55,-28.01 -1.4,1.49 -0.93,0.85 -2.33,3.11 -0.62,1 -2.03,3.75 -2.4,4.54l-10.65 27.9c-3.86,11.87 -6.37,27.08 -9.22,40.55 -4.03,19.07 -19.84,36.43 -42.51,30.65l-17.52 -4.26c-0.38,-0.15 -0.98,-0.46 -1.29,-0.59 -8.86,-3.69 15.59,-56.49 18.89,-62.08 27.49,-46.6 87.31,-126.17 93.94,-169.84 -16.23,22.56 -14.87,27.62 -42.12,61.58 -15.61,19.45 -33.26,37.05 -48.54,57.38 -14.49,19.29 -59.68,76.99 -45.52,106.67 9.46,19.84 24.46,16.27 27.2,26.35z"/>
      <path class="fil3" d="M530.31 369.54l14.19 -0.76c-11.43,10.4 -34.81,18.7 -35.19,53.32 5.63,-0.98 14.36,-11.21 20.68,-14.75 -15.46,48.8 -23.6,37.31 -32.59,64.93 9.67,-4.4 28.87,-29.31 61.27,-40.11 8.33,-2.78 17.46,-3.92 25.44,-6.04 5.96,-15.16 -2.55,-28.53 -5.68,-39.62 15.49,6.88 24.49,31.78 30.2,36.83 2.29,-26.58 -6.17,-53.58 -18.8,-69.18 -7.76,-9.58 -22.31,-14.58 -35.24,-8.32 -13.71,6.64 -15.44,11.79 -24.27,23.7z"/>
      <path class="fil3" d="M612.88 227.61c1.58,-8.16 17.27,-36.66 13.57,-44.79l-42.52 8.17c4.48,9.21 20.56,29.25 28.95,36.62z"/>
      <path class="fil3" d="M621.67 287.09c-2.59,-7.89 -2.79,-40.43 -9.98,-45.72l-33.15 27.85c8.4,5.86 32.21,15.52 43.13,17.87z"/>
      <path class="fil3" d="M628.58 339.44c-2.19,-6.66 -2.36,-34.12 -8.43,-38.58l-27.97 23.5c7.09,4.94 27.18,13.1 36.39,15.08z"/>
      <path class="fil3" d="M647.59 379.67c-3.55,-4.76 -11.09,-26.77 -17.17,-28.72l-16.14 26.42c7.03,2.06 25.37,3.2 33.3,2.31z"/>
      <path class="fil3" d="M674.98 413.2c-4.57,-3.79 -17.06,-23.42 -23.43,-23.89l-9.48 29.47c7.31,0.35 25.41,-2.85 32.91,-5.58z"/>
      <g>
       <path class="fil3" d="M452.73 692.34l0.98 4.77c7.42,-7.45 8.51,-12.12 19.53,-18.02 44.76,-24 65.4,-7.4 88.99,-4.91 -12.41,-18.02 -46.23,-24.49 -74.15,-13.32 1.66,-5.23 11.61,-12.97 17.63,-16.19 6.73,-3.6 15.68,-7.56 25.37,-8.23 19.8,-1.36 36.49,6.03 50.41,13.44 -7.75,-19.54 -22.91,-31.42 -48.58,-31.52l5.14 -4.97c15.78,-10.53 37.81,1.3 45.74,3.28 -3.99,-5.67 -10.18,-10.61 -13.08,-16.31 23.31,2.43 27.89,14.19 40.21,21.46 -4.17,-36.39 -27.97,-49.94 -60.1,-55.91 0.99,-1.79 0.43,-4.81 11.03,-7.66 52.05,-14.02 69.8,30.93 77.42,33.69 -4.71,-48.99 -33.77,-57.44 -36.45,-61.93 38.85,7.74 44.64,21.82 56.56,27.96 -6.06,-21.33 -16.18,-29.51 -30.43,-39.8l-10.88 -6.26c-2.35,-1.23 -2.38,-1.19 -3.81,-2.29 31.98,-7.35 46.44,13.05 54.95,17.92 -6.25,-19.24 -30.5,-43.52 -48.21,-51.33 -12.09,-5.33 -27.65,-6.38 -43.92,-3.53 -25.09,4.39 -27.41,11.13 -34.58,14.41l22.05 -1.55c-7.49,5.95 -50.54,18.51 -53.85,60.14 6.4,-4.57 12.2,-12.29 18.96,-17.84 7.42,-6.09 15.29,-9.87 26.48,-11.62l-19.41 17.94c-16.62,17.89 -34.4,27.51 -43.27,62.58 6.95,-6.7 9.11,-10 21.43,-14.13 -15.83,18.27 -26.04,20.25 -34.05,52.81 -6.93,28.16 -29.58,29.17 -28.11,56.92z"/>
       <path class="fil3" d="M711.12 477.73c-5.39,-8.15 -21.73,-20.68 -18.14,-36.32 6.25,-8.39 17.58,-8.38 25.58,-14.21 -69,-24.46 -60.75,41.6 -7.44,50.53z"/>
       <path class="fil3" d="M719.64 625.09c3.36,-3.43 14.14,-22.56 16.83,-35.26 3.67,-17.3 -1.02,-29.52 1.56,-37.37 9.02,12.06 12.08,62.96 -18.39,72.63z"/>
       <path class="fil3" d="M778.34 530.42c-25.41,-9.01 -43.94,-25.31 -59.39,-36.76 8.04,23.33 16.08,44.17 59.39,36.76z"/>
       <path class="fil3" d="M835.94 591.1c4.08,2.54 15.76,5.3 28.73,5.17 17.68,-0.18 40.01,-7.5 48.23,-6.69 -9.81,11.43 -60.9,29.15 -76.96,1.51z"/>
       <path class="fil3" d="M654.1 850c-0.95,-3.53 -7.31,-18.8 -12.12,-26.46 -6.54,-10.44 -12.13,-13.79 -14.98,-19.03 6.08,0.87 27.16,23.93 27.09,45.5z"/>
       <path class="fil3" d="M627.13 796.95c0.29,-3.64 0.47,-20.47 -2.53,-28.99 -3.99,-11.34 -11.35,-17.55 -12.28,-23.45 5.44,2.86 30.26,26.84 14.81,52.44z"/>
       <path class="fil3" d="M609.57 744.19c8.69,1.64 29.3,-2.44 38.12,-3.68 -2.03,5.26 -23.65,12.1 -38.12,3.68z"/>
       <g>
        <path class="fil3" d="M405.2 449.99c-1.66,18.06 -11.86,40.4 -1.81,84.51 9.5,26.59 11.88,39.39 30.34,55.19 -48.09,5.71 -62.89,-126.71 -28.52,-139.69z"/>
        <g>
         <path class="fil3" d="M401.8 379.52c-1.66,18.06 -8.76,27.34 1.29,71.45 9.5,26.59 8.78,52.45 27.23,68.25 -48.09,5.71 -62.89,-126.71 -28.53,-139.69z"/>
         <path class="fil3" d="M413.12 347.62c-1.66,18.06 -11.86,40.4 -1.81,84.51 9.5,26.59 11.88,39.39 30.34,55.19 -48.09,5.71 -62.89,-126.71 -28.52,-139.69z"/>
         <path class="fil3" d="M463.9 397.77c-1.25,-12.84 -10.9,-29.31 0.12,-59.67 10.07,-18.05 12.74,-26.9 31.49,-36.71 -47.8,-7.46 -65.57,84.78 -31.61,96.38z"/>
         <path class="fil3" d="M239.53 596.23c2.5,-5.95 9.55,-12.38 8.79,-28.51 -2.13,-10.11 -2.1,-14.74 -9.59,-22.2 23.93,3.53 18.74,50.2 0.8,50.71z"/>
         <path class="fil3" d="M226.25 588.96c1.39,-4.07 5.79,-8.66 4.55,-19.36 -1.88,-6.63 -2.06,-9.7 -7.39,-14.33 16.07,1.26 14.74,32.53 2.84,33.68z"/>
         <path class="fil3" d="M210.14 600.99c1.39,-4.07 5.79,-8.66 4.55,-19.36 -1.88,-6.63 -2.06,-9.7 -7.39,-14.33 16.07,1.26 14.74,32.53 2.84,33.68z"/>
         <path class="fil3" d="M231.19 596.16c3.88,-6.02 14.55,-12.65 13.85,-28.79 -2.9,-10.07 -2.72,-14.7 -13.68,-21.97 35.51,2.89 26.54,49.77 -0.17,50.76z"/>
         <path class="fil3" d="M250.86 589.84c2.99,-6.51 12.6,-14.59 9.62,-30.46 -4.3,-9.56 -4.78,-14.17 -16.66,-19.81 35.57,-2.18 33.33,45.51 7.03,50.27z"/>
        </g>
       </g>
      </g>
     </g>
    </g>
   </g>
  </g>
 </g>
</svg>
